<svg xmlns="http://www.w3.org/2000/svg" xmlns:xlink="http://www.w3.org/1999/xlink" width="600" height="400" viewBox="0 0 2400 1600">
<defs>
  <clipPath id="clip540">
    <rect x="0" y="0" width="2400" height="1600"></rect>
  </clipPath>
</defs>
<path clip-path="url(#clip540)" d="M0 1600 L2400 1600 L2400 0 L0 0  Z" fill="#ffffff" fill-rule="evenodd" fill-opacity="1"></path>
<defs>
  <clipPath id="clip541">
    <rect x="480" y="0" width="1681" height="1600"></rect>
  </clipPath>
</defs>
<path clip-path="url(#clip540)" d="M147.478 1486.45 L2352.76 1486.45 L2352.76 47.2441 L147.478 47.2441  Z" fill="#ffffff" fill-rule="evenodd" fill-opacity="1"></path>
<defs>
  <clipPath id="clip542">
    <rect x="147" y="47" width="2206" height="1440"></rect>
  </clipPath>
</defs>
<polyline clip-path="url(#clip542)" style="stroke:#000000; stroke-linecap:round; stroke-linejoin:round; stroke-width:2; stroke-opacity:0.1; fill:none" points="415.368,1486.45 415.368,47.2441 "></polyline>
<polyline clip-path="url(#clip542)" style="stroke:#000000; stroke-linecap:round; stroke-linejoin:round; stroke-width:2; stroke-opacity:0.1; fill:none" points="626.552,1486.45 626.552,47.2441 "></polyline>
<polyline clip-path="url(#clip542)" style="stroke:#000000; stroke-linecap:round; stroke-linejoin:round; stroke-width:2; stroke-opacity:0.1; fill:none" points="837.737,1486.45 837.737,47.2441 "></polyline>
<polyline clip-path="url(#clip542)" style="stroke:#000000; stroke-linecap:round; stroke-linejoin:round; stroke-width:2; stroke-opacity:0.1; fill:none" points="1048.92,1486.45 1048.92,47.2441 "></polyline>
<polyline clip-path="url(#clip542)" style="stroke:#000000; stroke-linecap:round; stroke-linejoin:round; stroke-width:2; stroke-opacity:0.1; fill:none" points="1260.11,1486.45 1260.11,47.2441 "></polyline>
<polyline clip-path="url(#clip542)" style="stroke:#000000; stroke-linecap:round; stroke-linejoin:round; stroke-width:2; stroke-opacity:0.1; fill:none" points="1471.29,1486.45 1471.29,47.2441 "></polyline>
<polyline clip-path="url(#clip542)" style="stroke:#000000; stroke-linecap:round; stroke-linejoin:round; stroke-width:2; stroke-opacity:0.1; fill:none" points="1682.47,1486.45 1682.47,47.2441 "></polyline>
<polyline clip-path="url(#clip542)" style="stroke:#000000; stroke-linecap:round; stroke-linejoin:round; stroke-width:2; stroke-opacity:0.1; fill:none" points="1893.66,1486.45 1893.66,47.2441 "></polyline>
<polyline clip-path="url(#clip542)" style="stroke:#000000; stroke-linecap:round; stroke-linejoin:round; stroke-width:2; stroke-opacity:0.1; fill:none" points="2104.84,1486.45 2104.84,47.2441 "></polyline>
<polyline clip-path="url(#clip542)" style="stroke:#000000; stroke-linecap:round; stroke-linejoin:round; stroke-width:2; stroke-opacity:0.1; fill:none" points="147.478,1426.11 2352.76,1426.11 "></polyline>
<polyline clip-path="url(#clip542)" style="stroke:#000000; stroke-linecap:round; stroke-linejoin:round; stroke-width:2; stroke-opacity:0.1; fill:none" points="147.478,1064.1 2352.76,1064.1 "></polyline>
<polyline clip-path="url(#clip542)" style="stroke:#000000; stroke-linecap:round; stroke-linejoin:round; stroke-width:2; stroke-opacity:0.1; fill:none" points="147.478,702.085 2352.76,702.085 "></polyline>
<polyline clip-path="url(#clip542)" style="stroke:#000000; stroke-linecap:round; stroke-linejoin:round; stroke-width:2; stroke-opacity:0.1; fill:none" points="147.478,340.073 2352.76,340.073 "></polyline>
<polyline clip-path="url(#clip540)" style="stroke:#000000; stroke-linecap:round; stroke-linejoin:round; stroke-width:4; stroke-opacity:1; fill:none" points="147.478,1486.45 2352.76,1486.45 "></polyline>
<polyline clip-path="url(#clip540)" style="stroke:#000000; stroke-linecap:round; stroke-linejoin:round; stroke-width:4; stroke-opacity:1; fill:none" points="415.368,1486.45 415.368,1467.55 "></polyline>
<polyline clip-path="url(#clip540)" style="stroke:#000000; stroke-linecap:round; stroke-linejoin:round; stroke-width:4; stroke-opacity:1; fill:none" points="626.552,1486.45 626.552,1467.55 "></polyline>
<polyline clip-path="url(#clip540)" style="stroke:#000000; stroke-linecap:round; stroke-linejoin:round; stroke-width:4; stroke-opacity:1; fill:none" points="837.737,1486.45 837.737,1467.55 "></polyline>
<polyline clip-path="url(#clip540)" style="stroke:#000000; stroke-linecap:round; stroke-linejoin:round; stroke-width:4; stroke-opacity:1; fill:none" points="1048.92,1486.45 1048.92,1467.55 "></polyline>
<polyline clip-path="url(#clip540)" style="stroke:#000000; stroke-linecap:round; stroke-linejoin:round; stroke-width:4; stroke-opacity:1; fill:none" points="1260.11,1486.45 1260.11,1467.55 "></polyline>
<polyline clip-path="url(#clip540)" style="stroke:#000000; stroke-linecap:round; stroke-linejoin:round; stroke-width:4; stroke-opacity:1; fill:none" points="1471.29,1486.45 1471.29,1467.55 "></polyline>
<polyline clip-path="url(#clip540)" style="stroke:#000000; stroke-linecap:round; stroke-linejoin:round; stroke-width:4; stroke-opacity:1; fill:none" points="1682.47,1486.45 1682.47,1467.55 "></polyline>
<polyline clip-path="url(#clip540)" style="stroke:#000000; stroke-linecap:round; stroke-linejoin:round; stroke-width:4; stroke-opacity:1; fill:none" points="1893.66,1486.45 1893.66,1467.55 "></polyline>
<polyline clip-path="url(#clip540)" style="stroke:#000000; stroke-linecap:round; stroke-linejoin:round; stroke-width:4; stroke-opacity:1; fill:none" points="2104.84,1486.45 2104.84,1467.55 "></polyline>
<path clip-path="url(#clip540)" d="M398.539 1522.92 L389.165 1535.54 L399.026 1548.85 L394.002 1548.85 L386.456 1538.66 L378.91 1548.85 L373.887 1548.85 L383.956 1535.28 L374.743 1522.92 L379.766 1522.92 L386.641 1532.16 L393.516 1522.92 L398.539 1522.92 Z" fill="#000000" fill-rule="nonzero" fill-opacity="1"></path><path clip-path="url(#clip540)" d="M419.812 1530.21 Q423.169 1530.93 425.044 1533.2 Q426.942 1535.47 426.942 1538.8 Q426.942 1543.92 423.424 1546.72 Q419.905 1549.52 413.424 1549.52 Q411.248 1549.52 408.933 1549.08 Q406.641 1548.66 404.188 1547.81 L404.188 1543.29 Q406.132 1544.43 408.447 1545.01 Q410.762 1545.58 413.285 1545.58 Q417.683 1545.58 419.975 1543.85 Q422.289 1542.11 422.289 1538.8 Q422.289 1535.75 420.137 1534.03 Q418.007 1532.3 414.188 1532.3 L410.16 1532.3 L410.16 1528.45 L414.373 1528.45 Q417.822 1528.45 419.65 1527.09 Q421.479 1525.7 421.479 1523.11 Q421.479 1520.45 419.581 1519.03 Q417.706 1517.6 414.188 1517.6 Q412.266 1517.6 410.067 1518.01 Q407.868 1518.43 405.229 1519.31 L405.229 1515.14 Q407.891 1514.4 410.206 1514.03 Q412.544 1513.66 414.604 1513.66 Q419.928 1513.66 423.03 1516.09 Q426.132 1518.5 426.132 1522.62 Q426.132 1525.49 424.488 1527.48 Q422.845 1529.45 419.812 1530.21 Z" fill="#000000" fill-rule="nonzero" fill-opacity="1"></path><path clip-path="url(#clip540)" d="M434.627 1514.29 L456.849 1514.29 L456.849 1516.28 L444.303 1548.85 L439.419 1548.85 L451.224 1518.22 L434.627 1518.22 L434.627 1514.29 Z" fill="#000000" fill-rule="nonzero" fill-opacity="1"></path><path clip-path="url(#clip540)" d="M609.029 1522.92 L599.654 1535.54 L609.515 1548.85 L604.492 1548.85 L596.946 1538.66 L589.4 1548.85 L584.377 1548.85 L594.446 1535.28 L585.233 1522.92 L590.256 1522.92 L597.131 1532.16 L604.006 1522.92 L609.029 1522.92 Z" fill="#000000" fill-rule="nonzero" fill-opacity="1"></path><path clip-path="url(#clip540)" d="M614.955 1514.29 L637.177 1514.29 L637.177 1516.28 L624.631 1548.85 L619.747 1548.85 L631.552 1518.22 L614.955 1518.22 L614.955 1514.29 Z" fill="#000000" fill-rule="nonzero" fill-opacity="1"></path><path clip-path="url(#clip540)" d="M659.145 1518.36 L647.339 1536.81 L659.145 1536.81 L659.145 1518.36 M657.918 1514.29 L663.798 1514.29 L663.798 1536.81 L668.728 1536.81 L668.728 1540.7 L663.798 1540.7 L663.798 1548.85 L659.145 1548.85 L659.145 1540.7 L643.543 1540.7 L643.543 1536.19 L657.918 1514.29 Z" fill="#000000" fill-rule="nonzero" fill-opacity="1"></path><path clip-path="url(#clip540)" d="M805.989 1522.92 L796.614 1535.54 L806.475 1548.85 L801.452 1548.85 L793.906 1538.66 L786.36 1548.85 L781.337 1548.85 L791.406 1535.28 L782.193 1522.92 L787.216 1522.92 L794.091 1532.16 L800.966 1522.92 L805.989 1522.92 Z" fill="#000000" fill-rule="nonzero" fill-opacity="1"></path><path clip-path="url(#clip540)" d="M813.906 1544.91 L821.545 1544.91 L821.545 1518.55 L813.235 1520.21 L813.235 1515.95 L821.498 1514.29 L826.174 1514.29 L826.174 1544.91 L833.813 1544.91 L833.813 1548.85 L813.906 1548.85 L813.906 1544.91 Z" fill="#000000" fill-rule="nonzero" fill-opacity="1"></path><path clip-path="url(#clip540)" d="M844.068 1544.91 L851.707 1544.91 L851.707 1518.55 L843.396 1520.21 L843.396 1515.95 L851.66 1514.29 L856.336 1514.29 L856.336 1544.91 L863.975 1544.91 L863.975 1548.85 L844.068 1548.85 L844.068 1544.91 Z" fill="#000000" fill-rule="nonzero" fill-opacity="1"></path><path clip-path="url(#clip540)" d="M874.23 1544.91 L881.868 1544.91 L881.868 1518.55 L873.558 1520.21 L873.558 1515.95 L881.822 1514.29 L886.498 1514.29 L886.498 1544.91 L894.137 1544.91 L894.137 1548.85 L874.23 1548.85 L874.23 1544.91 Z" fill="#000000" fill-rule="nonzero" fill-opacity="1"></path><path clip-path="url(#clip540)" d="M1016.61 1522.92 L1007.23 1535.54 L1017.09 1548.85 L1012.07 1548.85 L1004.52 1538.66 L996.977 1548.85 L991.954 1548.85 L1002.02 1535.28 L992.81 1522.92 L997.833 1522.92 L1004.71 1532.16 L1011.58 1522.92 L1016.61 1522.92 Z" fill="#000000" fill-rule="nonzero" fill-opacity="1"></path><path clip-path="url(#clip540)" d="M1024.52 1544.91 L1032.16 1544.91 L1032.16 1518.55 L1023.85 1520.21 L1023.85 1515.95 L1032.12 1514.29 L1036.79 1514.29 L1036.79 1544.91 L1044.43 1544.91 L1044.43 1548.85 L1024.52 1548.85 L1024.52 1544.91 Z" fill="#000000" fill-rule="nonzero" fill-opacity="1"></path><path clip-path="url(#clip540)" d="M1066.72 1518.36 L1054.92 1536.81 L1066.72 1536.81 L1066.72 1518.36 M1065.5 1514.29 L1071.37 1514.29 L1071.37 1536.81 L1076.31 1536.81 L1076.31 1540.7 L1071.37 1540.7 L1071.37 1548.85 L1066.72 1548.85 L1066.72 1540.7 L1051.12 1540.7 L1051.12 1536.19 L1065.5 1514.29 Z" fill="#000000" fill-rule="nonzero" fill-opacity="1"></path><path clip-path="url(#clip540)" d="M1094.04 1532.44 Q1090.7 1532.44 1088.78 1534.22 Q1086.88 1536 1086.88 1539.13 Q1086.88 1542.25 1088.78 1544.03 Q1090.7 1545.82 1094.04 1545.82 Q1097.37 1545.82 1099.29 1544.03 Q1101.21 1542.23 1101.21 1539.13 Q1101.21 1536 1099.29 1534.22 Q1097.39 1532.44 1094.04 1532.44 M1089.36 1530.45 Q1086.35 1529.7 1084.66 1527.64 Q1082.99 1525.58 1082.99 1522.62 Q1082.99 1518.48 1085.93 1516.07 Q1088.9 1513.66 1094.04 1513.66 Q1099.2 1513.66 1102.14 1516.07 Q1105.08 1518.48 1105.08 1522.62 Q1105.08 1525.58 1103.39 1527.64 Q1101.72 1529.7 1098.74 1530.45 Q1102.12 1531.23 1103.99 1533.52 Q1105.89 1535.82 1105.89 1539.13 Q1105.89 1544.15 1102.81 1546.83 Q1099.75 1549.52 1094.04 1549.52 Q1088.32 1549.52 1085.24 1546.83 Q1082.18 1544.15 1082.18 1539.13 Q1082.18 1535.82 1084.08 1533.52 Q1085.98 1531.23 1089.36 1530.45 M1087.65 1523.06 Q1087.65 1525.75 1089.31 1527.25 Q1091 1528.76 1094.04 1528.76 Q1097.05 1528.76 1098.74 1527.25 Q1100.45 1525.75 1100.45 1523.06 Q1100.45 1520.38 1098.74 1518.87 Q1097.05 1517.37 1094.04 1517.37 Q1091 1517.37 1089.31 1518.87 Q1087.65 1520.38 1087.65 1523.06 Z" fill="#000000" fill-rule="nonzero" fill-opacity="1"></path><path clip-path="url(#clip540)" d="M1228.24 1522.92 L1218.87 1535.54 L1228.73 1548.85 L1223.71 1548.85 L1216.16 1538.66 L1208.61 1548.85 L1203.59 1548.85 L1213.66 1535.28 L1204.45 1522.92 L1209.47 1522.92 L1216.34 1532.16 L1223.22 1522.92 L1228.24 1522.92 Z" fill="#000000" fill-rule="nonzero" fill-opacity="1"></path><path clip-path="url(#clip540)" d="M1236.16 1544.91 L1243.8 1544.91 L1243.8 1518.55 L1235.49 1520.21 L1235.49 1515.95 L1243.75 1514.29 L1248.43 1514.29 L1248.43 1544.91 L1256.07 1544.91 L1256.07 1548.85 L1236.16 1548.85 L1236.16 1544.91 Z" fill="#000000" fill-rule="nonzero" fill-opacity="1"></path><path clip-path="url(#clip540)" d="M1275.51 1532.44 Q1272.18 1532.44 1270.26 1534.22 Q1268.36 1536 1268.36 1539.13 Q1268.36 1542.25 1270.26 1544.03 Q1272.18 1545.82 1275.51 1545.82 Q1278.84 1545.82 1280.76 1544.03 Q1282.69 1542.23 1282.69 1539.13 Q1282.69 1536 1280.76 1534.22 Q1278.87 1532.44 1275.51 1532.44 M1270.83 1530.45 Q1267.83 1529.7 1266.14 1527.64 Q1264.47 1525.58 1264.47 1522.62 Q1264.47 1518.48 1267.41 1516.07 Q1270.37 1513.66 1275.51 1513.66 Q1280.67 1513.66 1283.61 1516.07 Q1286.55 1518.48 1286.55 1522.62 Q1286.55 1525.58 1284.86 1527.64 Q1283.2 1529.7 1280.21 1530.45 Q1283.59 1531.23 1285.46 1533.52 Q1287.36 1535.82 1287.36 1539.13 Q1287.36 1544.15 1284.28 1546.83 Q1281.23 1549.52 1275.51 1549.52 Q1269.79 1549.52 1266.71 1546.83 Q1263.66 1544.15 1263.66 1539.13 Q1263.66 1535.82 1265.56 1533.52 Q1267.45 1531.23 1270.83 1530.45 M1269.12 1523.06 Q1269.12 1525.75 1270.79 1527.25 Q1272.48 1528.76 1275.51 1528.76 Q1278.52 1528.76 1280.21 1527.25 Q1281.92 1525.75 1281.92 1523.06 Q1281.92 1520.38 1280.21 1518.87 Q1278.52 1517.37 1275.51 1517.37 Q1272.48 1517.37 1270.79 1518.87 Q1269.12 1520.38 1269.12 1523.06 Z" fill="#000000" fill-rule="nonzero" fill-opacity="1"></path><path clip-path="url(#clip540)" d="M1295.72 1514.29 L1314.07 1514.29 L1314.07 1518.22 L1300 1518.22 L1300 1526.7 Q1301.02 1526.35 1302.04 1526.19 Q1303.06 1526 1304.08 1526 Q1309.86 1526 1313.24 1529.17 Q1316.62 1532.34 1316.62 1537.76 Q1316.62 1543.34 1313.15 1546.44 Q1309.68 1549.52 1303.36 1549.52 Q1301.18 1549.52 1298.91 1549.15 Q1296.67 1548.78 1294.26 1548.04 L1294.26 1543.34 Q1296.34 1544.47 1298.57 1545.03 Q1300.79 1545.58 1303.26 1545.58 Q1307.27 1545.58 1309.61 1543.48 Q1311.95 1541.37 1311.95 1537.76 Q1311.95 1534.15 1309.61 1532.04 Q1307.27 1529.94 1303.26 1529.94 Q1301.39 1529.94 1299.51 1530.35 Q1297.66 1530.77 1295.72 1531.65 L1295.72 1514.29 Z" fill="#000000" fill-rule="nonzero" fill-opacity="1"></path><path clip-path="url(#clip540)" d="M1439.73 1522.92 L1430.35 1535.54 L1440.21 1548.85 L1435.19 1548.85 L1427.64 1538.66 L1420.1 1548.85 L1415.07 1548.85 L1425.14 1535.28 L1415.93 1522.92 L1420.95 1522.92 L1427.83 1532.16 L1434.7 1522.92 L1439.73 1522.92 Z" fill="#000000" fill-rule="nonzero" fill-opacity="1"></path><path clip-path="url(#clip540)" d="M1450.86 1544.91 L1467.18 1544.91 L1467.18 1548.85 L1445.24 1548.85 L1445.24 1544.91 Q1447.9 1542.16 1452.48 1537.53 Q1457.09 1532.88 1458.27 1531.53 Q1460.51 1529.01 1461.39 1527.27 Q1462.3 1525.51 1462.3 1523.82 Q1462.3 1521.07 1460.35 1519.33 Q1458.43 1517.6 1455.33 1517.6 Q1453.13 1517.6 1450.68 1518.36 Q1448.25 1519.13 1445.47 1520.68 L1445.47 1515.95 Q1448.29 1514.82 1450.75 1514.24 Q1453.2 1513.66 1455.24 1513.66 Q1460.61 1513.66 1463.8 1516.35 Q1467 1519.03 1467 1523.52 Q1467 1525.65 1466.19 1527.57 Q1465.4 1529.47 1463.29 1532.07 Q1462.71 1532.74 1459.61 1535.95 Q1456.51 1539.15 1450.86 1544.91 Z" fill="#000000" fill-rule="nonzero" fill-opacity="1"></path><path clip-path="url(#clip540)" d="M1481.02 1544.91 L1497.34 1544.91 L1497.34 1548.85 L1475.4 1548.85 L1475.4 1544.91 Q1478.06 1542.16 1482.64 1537.53 Q1487.25 1532.88 1488.43 1531.53 Q1490.68 1529.01 1491.56 1527.27 Q1492.46 1525.51 1492.46 1523.82 Q1492.46 1521.07 1490.51 1519.33 Q1488.59 1517.6 1485.49 1517.6 Q1483.29 1517.6 1480.84 1518.36 Q1478.41 1519.13 1475.63 1520.68 L1475.63 1515.95 Q1478.45 1514.82 1480.91 1514.24 Q1483.36 1513.66 1485.4 1513.66 Q1490.77 1513.66 1493.96 1516.35 Q1497.16 1519.03 1497.16 1523.52 Q1497.16 1525.65 1496.35 1527.57 Q1495.56 1529.47 1493.45 1532.07 Q1492.88 1532.74 1489.77 1535.95 Q1486.67 1539.15 1481.02 1544.91 Z" fill="#000000" fill-rule="nonzero" fill-opacity="1"></path><path clip-path="url(#clip540)" d="M1511.19 1544.91 L1527.5 1544.91 L1527.5 1548.85 L1505.56 1548.85 L1505.56 1544.91 Q1508.22 1542.16 1512.81 1537.53 Q1517.41 1532.88 1518.59 1531.53 Q1520.84 1529.01 1521.72 1527.27 Q1522.62 1525.51 1522.62 1523.82 Q1522.62 1521.07 1520.68 1519.33 Q1518.75 1517.6 1515.65 1517.6 Q1513.45 1517.6 1511 1518.36 Q1508.57 1519.13 1505.79 1520.68 L1505.79 1515.95 Q1508.62 1514.82 1511.07 1514.24 Q1513.52 1513.66 1515.56 1513.66 Q1520.93 1513.66 1524.13 1516.35 Q1527.32 1519.03 1527.32 1523.52 Q1527.32 1525.65 1526.51 1527.57 Q1525.72 1529.47 1523.62 1532.07 Q1523.04 1532.74 1519.94 1535.95 Q1516.83 1539.15 1511.19 1544.91 Z" fill="#000000" fill-rule="nonzero" fill-opacity="1"></path><path clip-path="url(#clip540)" d="M1650.21 1522.92 L1640.83 1535.54 L1650.69 1548.85 L1645.67 1548.85 L1638.12 1538.66 L1630.58 1548.85 L1625.55 1548.85 L1635.62 1535.28 L1626.41 1522.92 L1631.43 1522.92 L1638.31 1532.16 L1645.18 1522.92 L1650.21 1522.92 Z" fill="#000000" fill-rule="nonzero" fill-opacity="1"></path><path clip-path="url(#clip540)" d="M1661.34 1544.91 L1677.66 1544.91 L1677.66 1548.85 L1655.71 1548.85 L1655.71 1544.91 Q1658.38 1542.16 1662.96 1537.53 Q1667.57 1532.88 1668.75 1531.53 Q1670.99 1529.01 1671.87 1527.27 Q1672.77 1525.51 1672.77 1523.82 Q1672.77 1521.07 1670.83 1519.33 Q1668.91 1517.6 1665.81 1517.6 Q1663.61 1517.6 1661.15 1518.36 Q1658.72 1519.13 1655.95 1520.68 L1655.95 1515.95 Q1658.77 1514.82 1661.22 1514.24 Q1663.68 1513.66 1665.71 1513.66 Q1671.09 1513.66 1674.28 1516.35 Q1677.47 1519.03 1677.47 1523.52 Q1677.47 1525.65 1676.66 1527.57 Q1675.88 1529.47 1673.77 1532.07 Q1673.19 1532.74 1670.09 1535.95 Q1666.99 1539.15 1661.34 1544.91 Z" fill="#000000" fill-rule="nonzero" fill-opacity="1"></path><path clip-path="url(#clip540)" d="M1687.52 1514.29 L1705.88 1514.29 L1705.88 1518.22 L1691.8 1518.22 L1691.8 1526.7 Q1692.82 1526.35 1693.84 1526.19 Q1694.86 1526 1695.88 1526 Q1701.66 1526 1705.04 1529.17 Q1708.42 1532.34 1708.42 1537.76 Q1708.42 1543.34 1704.95 1546.44 Q1701.48 1549.52 1695.16 1549.52 Q1692.98 1549.52 1690.71 1549.15 Q1688.47 1548.78 1686.06 1548.04 L1686.06 1543.34 Q1688.15 1544.47 1690.37 1545.03 Q1692.59 1545.58 1695.07 1545.58 Q1699.07 1545.58 1701.41 1543.48 Q1703.75 1541.37 1703.75 1537.76 Q1703.75 1534.15 1701.41 1532.04 Q1699.07 1529.94 1695.07 1529.94 Q1693.19 1529.94 1691.32 1530.35 Q1689.46 1530.77 1687.52 1531.65 L1687.52 1514.29 Z" fill="#000000" fill-rule="nonzero" fill-opacity="1"></path><path clip-path="url(#clip540)" d="M1717.77 1548.13 L1717.77 1543.87 Q1719.53 1544.7 1721.34 1545.14 Q1723.15 1545.58 1724.88 1545.58 Q1729.51 1545.58 1731.94 1542.48 Q1734.4 1539.36 1734.74 1533.01 Q1733.4 1535.01 1731.34 1536.07 Q1729.28 1537.13 1726.78 1537.13 Q1721.59 1537.13 1718.56 1534.01 Q1715.55 1530.86 1715.55 1525.42 Q1715.55 1520.1 1718.7 1516.88 Q1721.85 1513.66 1727.08 1513.66 Q1733.08 1513.66 1736.22 1518.27 Q1739.39 1522.85 1739.39 1531.6 Q1739.39 1539.77 1735.51 1544.66 Q1731.64 1549.52 1725.09 1549.52 Q1723.33 1549.52 1721.52 1549.17 Q1719.72 1548.82 1717.77 1548.13 M1727.08 1533.48 Q1730.23 1533.48 1732.06 1531.32 Q1733.91 1529.17 1733.91 1525.42 Q1733.91 1521.7 1732.06 1519.54 Q1730.23 1517.37 1727.08 1517.37 Q1723.93 1517.37 1722.08 1519.54 Q1720.25 1521.7 1720.25 1525.42 Q1720.25 1529.17 1722.08 1531.32 Q1723.93 1533.48 1727.08 1533.48 Z" fill="#000000" fill-rule="nonzero" fill-opacity="1"></path><path clip-path="url(#clip540)" d="M1861.22 1522.92 L1851.84 1535.54 L1861.7 1548.85 L1856.68 1548.85 L1849.13 1538.66 L1841.59 1548.85 L1836.56 1548.85 L1846.63 1535.28 L1837.42 1522.92 L1842.44 1522.92 L1849.32 1532.16 L1856.19 1522.92 L1861.22 1522.92 Z" fill="#000000" fill-rule="nonzero" fill-opacity="1"></path><path clip-path="url(#clip540)" d="M1872.35 1544.91 L1888.67 1544.91 L1888.67 1548.85 L1866.73 1548.85 L1866.73 1544.91 Q1869.39 1542.16 1873.97 1537.53 Q1878.58 1532.88 1879.76 1531.53 Q1882 1529.01 1882.88 1527.27 Q1883.79 1525.51 1883.79 1523.82 Q1883.79 1521.07 1881.84 1519.33 Q1879.92 1517.6 1876.82 1517.6 Q1874.62 1517.6 1872.17 1518.36 Q1869.73 1519.13 1866.96 1520.68 L1866.96 1515.95 Q1869.78 1514.82 1872.23 1514.24 Q1874.69 1513.66 1876.73 1513.66 Q1882.1 1513.66 1885.29 1516.35 Q1888.48 1519.03 1888.48 1523.52 Q1888.48 1525.65 1887.67 1527.57 Q1886.89 1529.47 1884.78 1532.07 Q1884.2 1532.74 1881.1 1535.95 Q1878 1539.15 1872.35 1544.91 Z" fill="#000000" fill-rule="nonzero" fill-opacity="1"></path><path clip-path="url(#clip540)" d="M1898.62 1548.13 L1898.62 1543.87 Q1900.38 1544.7 1902.19 1545.14 Q1903.99 1545.58 1905.73 1545.58 Q1910.36 1545.58 1912.79 1542.48 Q1915.24 1539.36 1915.59 1533.01 Q1914.25 1535.01 1912.19 1536.07 Q1910.13 1537.13 1907.63 1537.13 Q1902.44 1537.13 1899.41 1534.01 Q1896.4 1530.86 1896.4 1525.42 Q1896.4 1520.1 1899.55 1516.88 Q1902.7 1513.66 1907.93 1513.66 Q1913.92 1513.66 1917.07 1518.27 Q1920.24 1522.85 1920.24 1531.6 Q1920.24 1539.77 1916.35 1544.66 Q1912.49 1549.52 1905.94 1549.52 Q1904.18 1549.52 1902.37 1549.17 Q1900.57 1548.82 1898.62 1548.13 M1907.93 1533.48 Q1911.08 1533.48 1912.91 1531.32 Q1914.76 1529.17 1914.76 1525.42 Q1914.76 1521.7 1912.91 1519.54 Q1911.08 1517.37 1907.93 1517.37 Q1904.78 1517.37 1902.93 1519.54 Q1901.1 1521.7 1901.1 1525.42 Q1901.1 1529.17 1902.93 1531.32 Q1904.78 1533.48 1907.93 1533.48 Z" fill="#000000" fill-rule="nonzero" fill-opacity="1"></path><path clip-path="url(#clip540)" d="M1939.23 1529.7 Q1936.08 1529.7 1934.23 1531.86 Q1932.4 1534.01 1932.4 1537.76 Q1932.4 1541.49 1934.23 1543.66 Q1936.08 1545.82 1939.23 1545.82 Q1942.37 1545.82 1944.2 1543.66 Q1946.05 1541.49 1946.05 1537.76 Q1946.05 1534.01 1944.2 1531.86 Q1942.37 1529.7 1939.23 1529.7 M1948.51 1515.05 L1948.51 1519.31 Q1946.75 1518.48 1944.94 1518.04 Q1943.16 1517.6 1941.4 1517.6 Q1936.77 1517.6 1934.32 1520.72 Q1931.89 1523.85 1931.54 1530.17 Q1932.91 1528.15 1934.97 1527.09 Q1937.03 1526 1939.5 1526 Q1944.71 1526 1947.72 1529.17 Q1950.75 1532.32 1950.75 1537.76 Q1950.75 1543.08 1947.6 1546.3 Q1944.46 1549.52 1939.23 1549.52 Q1933.23 1549.52 1930.06 1544.94 Q1926.89 1540.33 1926.89 1531.6 Q1926.89 1523.41 1930.78 1518.55 Q1934.67 1513.66 1941.22 1513.66 Q1942.98 1513.66 1944.76 1514.01 Q1946.56 1514.36 1948.51 1515.05 Z" fill="#000000" fill-rule="nonzero" fill-opacity="1"></path><path clip-path="url(#clip540)" d="M2072.81 1522.92 L2063.43 1535.54 L2073.29 1548.85 L2068.27 1548.85 L2060.72 1538.66 L2053.18 1548.85 L2048.15 1548.85 L2058.22 1535.28 L2049.01 1522.92 L2054.03 1522.92 L2060.91 1532.16 L2067.78 1522.92 L2072.81 1522.92 Z" fill="#000000" fill-rule="nonzero" fill-opacity="1"></path><path clip-path="url(#clip540)" d="M2094.08 1530.21 Q2097.44 1530.93 2099.31 1533.2 Q2101.21 1535.47 2101.21 1538.8 Q2101.21 1543.92 2097.69 1546.72 Q2094.17 1549.52 2087.69 1549.52 Q2085.51 1549.52 2083.2 1549.08 Q2080.91 1548.66 2078.45 1547.81 L2078.45 1543.29 Q2080.4 1544.43 2082.71 1545.01 Q2085.03 1545.58 2087.55 1545.58 Q2091.95 1545.58 2094.24 1543.85 Q2096.56 1542.11 2096.56 1538.8 Q2096.56 1535.75 2094.4 1534.03 Q2092.27 1532.3 2088.45 1532.3 L2084.43 1532.3 L2084.43 1528.45 L2088.64 1528.45 Q2092.09 1528.45 2093.92 1527.09 Q2095.75 1525.7 2095.75 1523.11 Q2095.75 1520.45 2093.85 1519.03 Q2091.97 1517.6 2088.45 1517.6 Q2086.53 1517.6 2084.33 1518.01 Q2082.13 1518.43 2079.5 1519.31 L2079.5 1515.14 Q2082.16 1514.4 2084.47 1514.03 Q2086.81 1513.66 2088.87 1513.66 Q2094.19 1513.66 2097.3 1516.09 Q2100.4 1518.5 2100.4 1522.62 Q2100.4 1525.49 2098.75 1527.48 Q2097.11 1529.45 2094.08 1530.21 Z" fill="#000000" fill-rule="nonzero" fill-opacity="1"></path><path clip-path="url(#clip540)" d="M2124.24 1530.21 Q2127.6 1530.93 2129.47 1533.2 Q2131.37 1535.47 2131.37 1538.8 Q2131.37 1543.92 2127.85 1546.72 Q2124.33 1549.52 2117.85 1549.52 Q2115.68 1549.52 2113.36 1549.08 Q2111.07 1548.66 2108.62 1547.81 L2108.62 1543.29 Q2110.56 1544.43 2112.88 1545.01 Q2115.19 1545.58 2117.71 1545.58 Q2122.11 1545.58 2124.4 1543.85 Q2126.72 1542.11 2126.72 1538.8 Q2126.72 1535.75 2124.56 1534.03 Q2122.44 1532.3 2118.62 1532.3 L2114.59 1532.3 L2114.59 1528.45 L2118.8 1528.45 Q2122.25 1528.45 2124.08 1527.09 Q2125.91 1525.7 2125.91 1523.11 Q2125.91 1520.45 2124.01 1519.03 Q2122.13 1517.6 2118.62 1517.6 Q2116.69 1517.6 2114.5 1518.01 Q2112.3 1518.43 2109.66 1519.31 L2109.66 1515.14 Q2112.32 1514.4 2114.63 1514.03 Q2116.97 1513.66 2119.03 1513.66 Q2124.36 1513.66 2127.46 1516.09 Q2130.56 1518.5 2130.56 1522.62 Q2130.56 1525.49 2128.92 1527.48 Q2127.27 1529.45 2124.24 1530.21 Z" fill="#000000" fill-rule="nonzero" fill-opacity="1"></path><path clip-path="url(#clip540)" d="M2154.4 1530.21 Q2157.76 1530.93 2159.63 1533.2 Q2161.53 1535.47 2161.53 1538.8 Q2161.53 1543.92 2158.01 1546.72 Q2154.5 1549.52 2148.01 1549.52 Q2145.84 1549.52 2143.52 1549.08 Q2141.23 1548.66 2138.78 1547.81 L2138.78 1543.29 Q2140.72 1544.43 2143.04 1545.01 Q2145.35 1545.58 2147.87 1545.58 Q2152.27 1545.58 2154.56 1543.85 Q2156.88 1542.11 2156.88 1538.8 Q2156.88 1535.75 2154.73 1534.03 Q2152.6 1532.3 2148.78 1532.3 L2144.75 1532.3 L2144.75 1528.45 L2148.96 1528.45 Q2152.41 1528.45 2154.24 1527.09 Q2156.07 1525.7 2156.07 1523.11 Q2156.07 1520.45 2154.17 1519.03 Q2152.3 1517.6 2148.78 1517.6 Q2146.86 1517.6 2144.66 1518.01 Q2142.46 1518.43 2139.82 1519.31 L2139.82 1515.14 Q2142.48 1514.4 2144.8 1514.03 Q2147.13 1513.66 2149.19 1513.66 Q2154.52 1513.66 2157.62 1516.09 Q2160.72 1518.5 2160.72 1522.62 Q2160.72 1525.49 2159.08 1527.48 Q2157.43 1529.45 2154.4 1530.21 Z" fill="#000000" fill-rule="nonzero" fill-opacity="1"></path><polyline clip-path="url(#clip540)" style="stroke:#000000; stroke-linecap:round; stroke-linejoin:round; stroke-width:4; stroke-opacity:1; fill:none" points="147.478,1486.45 147.478,47.2441 "></polyline>
<polyline clip-path="url(#clip540)" style="stroke:#000000; stroke-linecap:round; stroke-linejoin:round; stroke-width:4; stroke-opacity:1; fill:none" points="147.478,1426.11 166.376,1426.11 "></polyline>
<polyline clip-path="url(#clip540)" style="stroke:#000000; stroke-linecap:round; stroke-linejoin:round; stroke-width:4; stroke-opacity:1; fill:none" points="147.478,1064.1 166.376,1064.1 "></polyline>
<polyline clip-path="url(#clip540)" style="stroke:#000000; stroke-linecap:round; stroke-linejoin:round; stroke-width:4; stroke-opacity:1; fill:none" points="147.478,702.085 166.376,702.085 "></polyline>
<polyline clip-path="url(#clip540)" style="stroke:#000000; stroke-linecap:round; stroke-linejoin:round; stroke-width:4; stroke-opacity:1; fill:none" points="147.478,340.073 166.376,340.073 "></polyline>
<path clip-path="url(#clip540)" d="M51.3625 1426.56 L81.0383 1426.56 L81.0383 1430.49 L51.3625 1430.49 L51.3625 1426.56 Z" fill="#000000" fill-rule="nonzero" fill-opacity="1"></path><path clip-path="url(#clip540)" d="M95.1586 1439.45 L111.478 1439.45 L111.478 1443.39 L89.5336 1443.39 L89.5336 1439.45 Q92.1956 1436.7 96.7789 1432.07 Q101.385 1427.42 102.566 1426.07 Q104.811 1423.55 105.691 1421.81 Q106.594 1420.05 106.594 1418.37 Q106.594 1415.61 104.649 1413.87 Q102.728 1412.14 99.6261 1412.14 Q97.4271 1412.14 94.9734 1412.9 Q92.5428 1413.67 89.7651 1415.22 L89.7651 1410.49 Q92.5891 1409.36 95.0428 1408.78 Q97.4965 1408.2 99.5335 1408.2 Q104.904 1408.2 108.098 1410.89 Q111.293 1413.57 111.293 1418.06 Q111.293 1420.19 110.483 1422.12 Q109.696 1424.01 107.589 1426.61 Q107.01 1427.28 103.909 1430.49 Q100.807 1433.69 95.1586 1439.45 Z" fill="#000000" fill-rule="nonzero" fill-opacity="1"></path><path clip-path="url(#clip540)" d="M50.9921 1064.55 L80.6679 1064.55 L80.6679 1068.48 L50.9921 1068.48 L50.9921 1064.55 Z" fill="#000000" fill-rule="nonzero" fill-opacity="1"></path><path clip-path="url(#clip540)" d="M91.5706 1077.44 L99.2095 1077.44 L99.2095 1051.08 L90.8993 1052.74 L90.8993 1048.48 L99.1632 1046.82 L103.839 1046.82 L103.839 1077.44 L111.478 1077.44 L111.478 1081.38 L91.5706 1081.38 L91.5706 1077.44 Z" fill="#000000" fill-rule="nonzero" fill-opacity="1"></path><path clip-path="url(#clip540)" d="M99.5335 687.883 Q95.9224 687.883 94.0937 691.448 Q92.2882 694.99 92.2882 702.119 Q92.2882 709.226 94.0937 712.791 Q95.9224 716.332 99.5335 716.332 Q103.168 716.332 104.973 712.791 Q106.802 709.226 106.802 702.119 Q106.802 694.99 104.973 691.448 Q103.168 687.883 99.5335 687.883 M99.5335 684.18 Q105.344 684.18 108.399 688.786 Q111.478 693.369 111.478 702.119 Q111.478 710.846 108.399 715.453 Q105.344 720.036 99.5335 720.036 Q93.7234 720.036 90.6447 715.453 Q87.5892 710.846 87.5892 702.119 Q87.5892 693.369 90.6447 688.786 Q93.7234 684.18 99.5335 684.18 Z" fill="#000000" fill-rule="nonzero" fill-opacity="1"></path><path clip-path="url(#clip540)" d="M91.5706 353.418 L99.2095 353.418 L99.2095 327.052 L90.8993 328.719 L90.8993 324.46 L99.1632 322.793 L103.839 322.793 L103.839 353.418 L111.478 353.418 L111.478 357.353 L91.5706 357.353 L91.5706 353.418 Z" fill="#000000" fill-rule="nonzero" fill-opacity="1"></path><polyline clip-path="url(#clip542)" style="stroke:#7fff00; stroke-linecap:round; stroke-linejoin:round; stroke-width:8; stroke-opacity:1; fill:none" points="209.891,784.083 215.599,818.717 221.307,849.804 227.014,875.888 232.722,896.385 238.43,911.075 244.138,920.442 249.845,925.132 255.553,925.936 261.261,923.888 266.968,919.816 272.676,914.237 278.384,907.882 284.091,900.836 289.799,893.284 295.507,885.132 301.214,875.871 306.922,865.271 312.63,852.791 318.337,838.186 324.045,821.362 329.753,802.476 335.46,781.874 341.168,759.989 346.876,737.286 352.584,714.042 358.291,690.694 363.999,667.314 369.707,643.939 375.414,620.387 381.122,596.412 386.83,571.491 392.537,545.707 398.245,518.613 403.953,490.722 409.66,462.327 415.368,433.994 421.076,406.548 426.783,380.67 432.491,357.031 438.199,336.231 443.906,318.162 449.614,302.53 455.322,288.748 461.03,275.95 466.737,263.224 472.445,250.218 478.153,236.343 483.86,221.241 489.568,204.829 495.276,187.124 500.983,168.426 506.691,149.626 512.399,131.649 518.106,115.606 523.814,102.591 529.522,93.2139 535.229,88.3504 540.937,87.9763 546.645,92.6231 552.353,102.761 558.06,118.324 563.768,139.76 569.476,166.67 575.183,199.212 580.891,236.948 586.599,279.601 592.306,326.108 598.014,375.258 603.722,425.621 609.429,475.22 615.137,522.655 620.845,565.944 626.552,603.786 632.26,634.658 637.968,657.426 643.675,671.025 649.383,674.848 655.091,669.117 660.799,654.047 666.506,630.659 672.214,600.272 677.922,564.096 683.629,523.931 689.337,481.307 695.045,437.362 700.752,393.325 706.46,350.074 712.168,308.632 717.875,270.047 723.583,235.415 729.291,205.548 734.998,181.64 740.706,164.645 746.414,155.28 752.121,154.492 757.829,163.323 763.537,182.777 769.245,213.992 774.952,257.79 780.66,314.709 786.368,384.473 792.075,466.268 797.783,558.457 803.491,658.927 809.198,764.674 814.906,873.005 820.614,980.456 826.321,1083.68 832.029,1179.36 837.737,1264.13 843.444,1335.23 849.152,1390.15 854.86,1427.14 860.567,1445.72 866.275,1445.59 871.983,1427.95 877.691,1394.42 883.398,1347.07 889.106,1288.53 894.814,1221.72 900.521,1149.24 906.229,1073.84 911.937,997.789 917.644,923.252 923.352,851.765 929.06,784.486 934.767,722.156 940.475,665.324 946.183,613.954 951.89,567.935 957.598,527.035 963.306,491.285 969.013,460.3 974.721,434.197 980.429,413.409 986.137,398.332 991.844,389.606 997.552,387.511 1003.26,392.244 1008.97,403.169 1014.67,419.502 1020.38,440.142 1026.09,463.579 1031.8,488.197 1037.51,512.558 1043.21,534.973 1048.92,553.699 1054.63,567.29 1060.34,574.607 1066.04,575.163 1071.75,568.99 1077.46,556.866 1083.17,540.215 1088.87,520.841 1094.58,500.767 1100.29,482.077 1106,467.051 1111.71,457.541 1117.41,455.806 1123.12,463.311 1128.83,481.311 1134.54,510.4 1140.24,550.663 1145.95,601.39 1151.66,661.479 1157.37,729.82 1163.07,804.972 1168.78,884.924 1174.49,967.779 1180.2,1051.05 1185.91,1132.23 1191.61,1208.55 1197.32,1277.42 1203.03,1336.49 1208.74,1383.7 1214.44,1417.24 1220.15,1436.37 1225.86,1440.51 1231.57,1430.63 1237.27,1407.87 1242.98,1374.18 1248.69,1332.39 1254.4,1285.35 1260.11,1236.62 1265.81,1189.69 1271.52,1147.18 1277.23,1111.48 1282.94,1083.64 1288.64,1064.38 1294.35,1053.08 1300.06,1048.75 1305.77,1048.87 1311.47,1050.51 1317.18,1050.32 1322.89,1045.17 1328.6,1032.08 1334.31,1009.07 1340.01,974.565 1345.72,927.877 1351.43,869.346 1357.14,800.039 1362.84,722.215 1368.55,638.563 1374.26,552.386 1379.97,467.198 1385.67,386.07 1391.38,312.203 1397.09,248.163 1402.8,195.401 1408.51,155.322 1414.21,128.164 1419.92,113.845 1425.63,111.383 1431.34,119.792 1437.04,137.389 1442.75,162.64 1448.46,193.712 1454.17,229.193 1459.87,267.691 1465.58,308.213 1471.29,349.696 1477,391.324 1482.71,432.613 1488.41,472.956 1494.12,511.891 1499.83,549.132 1505.54,584.118 1511.24,616.791 1516.95,646.709 1522.66,673.817 1528.37,698.076 1534.07,719.418 1539.78,737.793 1545.49,753.239 1551.2,765.344 1556.9,774.052 1562.61,779.161 1568.32,780.915 1574.03,779.227 1579.74,774.677 1585.44,767.185 1591.15,756.869 1596.86,743.752 1602.57,727.827 1608.27,709.436 1613.98,689.114 1619.69,667.48 1625.4,645.722 1631.1,624.765 1636.81,605.766 1642.52,589.61 1648.23,577.28 1653.94,569.263 1659.64,566.07 1665.35,567.928 1671.06,574.58 1676.77,585.361 1682.47,598.948 1688.18,613.833 1693.89,628.249 1699.6,640.237 1705.3,647.956 1711.01,649.776 1716.72,644.631 1722.43,631.939 1728.14,611.759 1733.84,585.108 1739.55,553.048 1745.26,517.695 1750.97,481.573 1756.67,447.49 1762.38,418.754 1768.09,398.267 1773.8,388.569 1779.5,391.382 1785.21,407.819 1790.92,437.814 1796.63,480.824 1802.34,535.143 1808.04,598.642 1813.75,667.941 1819.46,739.663 1825.17,809.988 1830.87,875.367 1836.58,932.678 1842.29,979.319 1848,1013.59 1853.7,1034.04 1859.41,1040.32 1865.12,1032.77 1870.83,1012.53 1876.54,981.429 1882.24,941.709 1887.95,895.891 1893.66,846.448 1899.37,795.764 1905.07,745.715 1910.78,698.215 1916.49,654.124 1922.2,614.322 1927.9,579.213 1933.61,548.606 1939.32,522.438 1945.03,500.577 1950.74,482.677 1956.44,468.604 1962.15,458.417 1967.86,451.598 1973.57,448.288 1979.27,448.107 1984.98,450.919 1990.69,456.362 1996.4,464.062 2002.1,473.111 2007.81,482.466 2013.52,491.045 2019.23,497.576 2024.94,501.249 2030.64,500.814 2036.35,495.65 2042.06,484.892 2047.77,468.696 2053.47,447.159 2059.18,421.262 2064.89,392.173 2070.6,361.342 2076.3,330.305 2082.01,300.581 2087.72,273.602 2093.43,250.926 2099.13,233.749 2104.84,223.016 2110.55,219.045 2116.26,221.733 2121.97,230.538 2127.67,244.556 2133.38,262.769 2139.09,284.315 2144.8,308.096 2150.5,333.258 2156.21,358.968 2161.92,384.327 2167.63,408.495 2173.33,431.268 2179.04,452.332 2184.75,471.496 2190.46,488.599 2196.17,503.453 2201.87,516.166 2207.58,526.803 2213.29,535.26 2219,541.117 2224.7,543.74 2230.41,542.545 2236.12,536.845 2241.83,526.482 2247.53,511.616 2253.24,492.146 2258.95,468.359 2264.66,440.713 2270.37,409.804 2276.07,377.109 2281.78,344.397 2287.49,314.087 "></polyline>
<polyline clip-path="url(#clip542)" style="stroke:#006400; stroke-linecap:round; stroke-linejoin:round; stroke-width:8; stroke-opacity:1; fill:none" stroke-dasharray="32, 20" points="212.745,808.307 218.453,840.498 224.161,867.438 229.868,889.404 235.576,906.564 241.284,916.886 246.991,922.341 252.699,922.854 258.407,921.576 264.114,916.579 269.822,911.186 275.53,904.518 281.237,898.099 286.945,891.935 292.653,884.911 298.361,876.478 304.068,868.456 309.776,856.719 315.484,843.307 321.191,825.823 326.899,808.157 332.607,786.845 338.314,764.111 344.022,741.206 349.73,717.713 355.437,694.777 361.145,672.456 366.853,649.969 372.56,629.178 378.268,605.559 383.976,582.607 389.683,557.409 395.391,531.449 401.099,503.973 406.807,475.122 412.514,446.19 418.222,417.058 423.93,390.4 429.637,365.376 435.345,343.823 441.053,325.51 446.76,309.723 452.468,295.667 458.176,284.597 463.883,272.757 469.591,260.685 475.299,248.158 481.006,233.945 486.714,216.967 492.422,198.943 498.129,178.686 503.837,159.935 509.545,142.069 515.253,125.602 520.96,111.664 526.668,101.008 532.376,95.9088 538.083,94.5191 543.791,97.9866 549.499,106.3 555.206,120.244 560.914,140.034 566.622,164.075 572.329,193.792 578.037,229.703 583.745,269.877 589.452,314.05 595.16,360.962 600.868,411.289 606.576,460.27 612.283,508.621 617.991,554.495 623.699,594.98 629.406,627.605 635.114,653.992 640.822,669.442 646.529,675.973 652.237,672.994 657.945,660.259 663.652,638.789 669.36,610.23 675.068,576.213 680.775,536.335 686.483,494.991 692.191,451.326 697.898,407.381 703.606,364.43 709.314,322.97 715.022,284.596 720.729,250.031 726.437,219.979 732.145,195.307 737.852,176.254 743.56,163.972 749.268,160.73 754.975,166.488 760.683,182.115 766.391,209.038 772.098,247.858 777.806,300.587 783.514,364.568 789.221,441.588 794.929,528.487 800.637,625.399 806.344,729.384 812.052,836.234 817.76,944.455 823.468,1049.02 829.175,1147.66 834.883,1236.26 840.591,1310.95 846.298,1370.86 852.006,1413.5 857.714,1436.82 863.421,1442.39 869.129,1429.82 874.837,1399.49 880.544,1356.03 886.252,1299.55 891.96,1234.65 897.667,1163.8 903.375,1089.09 909.083,1014.12 914.79,940.221 920.498,869.395 926.206,802.34 931.914,740.325 937.621,683.232 943.329,631.71 949.037,585.728 954.744,543.221 960.452,506.253 966.16,473.992 971.867,445.488 977.575,423.116 983.283,405.952 988.99,395.317 994.698,390.253 1000.41,391.368 1006.11,399.805 1011.82,414.205 1017.53,432.63 1023.24,455.207 1028.94,481.318 1034.65,507.138 1040.36,531.563 1046.07,552.954 1051.77,568.318 1057.48,577.564 1063.19,580.297 1068.9,575.046 1074.61,564.079 1080.31,547.335 1086.02,527.317 1091.73,507.139 1097.44,487.312 1103.14,469.784 1108.85,459.733 1114.56,456.864 1120.27,462.174 1125.97,478.398 1131.68,505.126 1137.39,541.701 1143.1,589.003 1148.81,645.665 1154.51,710.12 1160.22,781.799 1165.93,858.617 1171.64,939.596 1177.34,1020.77 1183.05,1101.82 1188.76,1178.99 1194.47,1249.36 1200.17,1311.97 1205.88,1363.06 1211.59,1401.79 1217.3,1426.07 1223.01,1435.74 1228.71,1430.28 1234.42,1411.37 1240.13,1380.25 1245.84,1340.33 1251.54,1293.76 1257.25,1244.02 1262.96,1195.89 1268.67,1150.92 1274.37,1112.02 1280.08,1082.02 1285.79,1059.92 1291.5,1046.46 1297.21,1041.98 1302.91,1042.04 1308.62,1044.72 1314.33,1046.77 1320.04,1044.59 1325.74,1036.11 1331.45,1017.23 1337.16,987.084 1342.87,944.427 1348.57,889.937 1354.28,822.661 1359.99,747.155 1365.7,664.726 1371.41,579.13 1377.11,492.754 1382.82,410.12 1388.53,334.531 1394.24,268.497 1399.94,212.956 1405.65,170.313 1411.36,140.091 1417.07,123.816 1422.77,118.252 1428.48,124.555 1434.19,139.83 1439.9,161.952 1445.61,191.142 1451.31,224.629 1457.02,261.224 1462.73,300.371 1468.44,339.427 1474.14,381.567 1479.85,421.384 1485.56,461.214 1491.27,500.768 1496.97,538.589 1502.68,575.127 1508.39,608.994 1514.1,639.589 1519.8,668.057 1525.51,693.919 1531.22,716.557 1536.93,735.121 1542.64,750.571 1548.34,763.445 1554.05,771.868 1559.76,776.698 1565.47,778.945 1571.17,778.719 1576.88,774.665 1582.59,766.861 1588.3,759.435 1594,746.188 1599.71,730.535 1605.42,714.322 1611.13,694.982 1616.84,675.276 1622.54,653.662 1628.25,633.031 1633.96,613.793 1639.67,597.132 1645.37,582.571 1651.08,571.615 1656.79,567.23 1662.5,567.379 1668.2,571.85 1673.91,581.357 1679.62,593.973 1685.33,609.251 1691.04,622.876 1696.74,636.351 1702.45,646.281 1708.16,651.525 1713.87,648.737 1719.57,639.654 1725.28,621.971 1730.99,597.322 1736.7,567.323 1742.4,531.678 1748.11,495.307 1753.82,460.695 1759.53,429.624 1765.24,405.868 1770.94,392.192 1776.65,390.024 1782.36,401.835 1788.07,427.757 1793.77,466.387 1799.48,517.702 1805.19,578.138 1810.9,647.327 1816.6,718.118 1822.31,790.418 1828.02,858.527 1833.73,918.41 1839.44,967.931 1845.14,1005.92 1850.85,1029.12 1856.56,1038.56 1862.27,1033.85 1867.97,1015.03 1873.68,985.348 1879.39,947.918 1885.1,903.226 1890.8,855.3 1896.51,805.75 1902.22,756.652 1907.93,709.488 1913.64,666.904 1919.34,626.622 1925.05,590.745 1930.76,560.396 1936.47,532.975 1942.17,511.014 1947.88,491.477 1953.59,476.953 1959.3,464.627 1965,456.716 1970.71,451.238 1976.42,449.536 1982.13,451.645 1987.84,456.236 1993.54,463.302 1999.25,471.576 2004.96,480.668 2010.67,489.966 2016.37,497.818 2022.08,503.695 2027.79,504.796 2033.5,501.487 2039.2,493.766 2044.91,478.722 2050.62,459.205 2056.33,434.387 2062.04,405.518 2067.74,375.138 2073.45,342.497 2079.16,311.816 2084.87,283.77 2090.57,259.457 2096.28,241.249 2101.99,228.454 2107.7,223.128 2113.4,223.522 2119.11,231.071 2124.82,244.159 2130.53,262.795 2136.23,284.09 2141.94,307.329 2147.65,332.585 2153.36,357.666 2159.07,383.431 2164.77,406.302 2170.48,427.47 2176.19,448.777 2181.9,466.845 2187.6,482.781 2193.31,498.221 2199.02,511.217 2204.73,523.859 2210.43,533.424 2216.14,541.415 2221.85,545.872 2227.56,545.677 2233.27,543.406 2238.97,533.988 2244.68,521.349 2250.39,502.382 2256.1,477.814 2261.8,451.934 2267.51,421.734 2273.22,391.595 2278.93,360.914 2284.63,333.619 2290.34,309.466 "></polyline>
<path clip-path="url(#clip540)" d="M1791.22 1438.47 L2279.25 1438.47 L2279.25 1282.95 L1791.22 1282.95  Z" fill="#ffffff" fill-rule="evenodd" fill-opacity="1"></path>
<polyline clip-path="url(#clip540)" style="stroke:#000000; stroke-linecap:round; stroke-linejoin:round; stroke-width:4; stroke-opacity:1; fill:none" points="1791.22,1438.47 2279.25,1438.47 2279.25,1282.95 1791.22,1282.95 1791.22,1438.47 "></polyline>
<polyline clip-path="url(#clip540)" style="stroke:#7fff00; stroke-linecap:round; stroke-linejoin:round; stroke-width:8; stroke-opacity:1; fill:none" points="1815.72,1334.79 1962.74,1334.79 "></polyline>
<path clip-path="url(#clip540)" d="M1987.24 1317.51 L2009.1 1317.51 L2009.1 1321.45 L1991.92 1321.45 L1991.92 1331.68 L2008.38 1331.68 L2008.38 1335.62 L1991.92 1335.62 L1991.92 1348.14 L2009.51 1348.14 L2009.51 1352.07 L1987.24 1352.07 L1987.24 1317.51 Z" fill="#000000" fill-rule="nonzero" fill-opacity="1"></path><path clip-path="url(#clip540)" d="M2033.54 1326.91 L2033.54 1330.94 Q2031.74 1330.01 2029.79 1329.55 Q2027.85 1329.09 2025.76 1329.09 Q2022.59 1329.09 2020.99 1330.06 Q2019.42 1331.03 2019.42 1332.98 Q2019.42 1334.46 2020.55 1335.32 Q2021.69 1336.15 2025.12 1336.91 L2026.57 1337.24 Q2031.11 1338.21 2033.01 1339.99 Q2034.93 1341.75 2034.93 1344.92 Q2034.93 1348.53 2032.06 1350.64 Q2029.21 1352.75 2024.21 1352.75 Q2022.13 1352.75 2019.86 1352.33 Q2017.62 1351.94 2015.12 1351.13 L2015.12 1346.73 Q2017.48 1347.95 2019.77 1348.58 Q2022.06 1349.18 2024.3 1349.18 Q2027.31 1349.18 2028.93 1348.16 Q2030.55 1347.12 2030.55 1345.25 Q2030.55 1343.51 2029.37 1342.58 Q2028.22 1341.66 2024.26 1340.8 L2022.78 1340.45 Q2018.82 1339.62 2017.06 1337.91 Q2015.3 1336.17 2015.3 1333.16 Q2015.3 1329.51 2017.89 1327.51 Q2020.49 1325.52 2025.25 1325.52 Q2027.62 1325.52 2029.7 1325.87 Q2031.78 1326.22 2033.54 1326.91 Z" fill="#000000" fill-rule="nonzero" fill-opacity="1"></path><path clip-path="url(#clip540)" d="M2045.93 1318.79 L2045.93 1326.15 L2054.7 1326.15 L2054.7 1329.46 L2045.93 1329.46 L2045.93 1343.53 Q2045.93 1346.7 2046.78 1347.61 Q2047.66 1348.51 2050.32 1348.51 L2054.7 1348.51 L2054.7 1352.07 L2050.32 1352.07 Q2045.39 1352.07 2043.52 1350.25 Q2041.64 1348.39 2041.64 1343.53 L2041.64 1329.46 L2038.52 1329.46 L2038.52 1326.15 L2041.64 1326.15 L2041.64 1318.79 L2045.93 1318.79 Z" fill="#000000" fill-rule="nonzero" fill-opacity="1"></path><path clip-path="url(#clip540)" d="M2060.3 1326.15 L2064.56 1326.15 L2064.56 1352.07 L2060.3 1352.07 L2060.3 1326.15 M2060.3 1316.06 L2064.56 1316.06 L2064.56 1321.45 L2060.3 1321.45 L2060.3 1316.06 Z" fill="#000000" fill-rule="nonzero" fill-opacity="1"></path><path clip-path="url(#clip540)" d="M2093.66 1331.13 Q2095.25 1328.26 2097.48 1326.89 Q2099.7 1325.52 2102.71 1325.52 Q2106.76 1325.52 2108.96 1328.37 Q2111.16 1331.19 2111.16 1336.43 L2111.16 1352.07 L2106.87 1352.07 L2106.87 1336.57 Q2106.87 1332.84 2105.55 1331.03 Q2104.24 1329.23 2101.53 1329.23 Q2098.22 1329.23 2096.3 1331.43 Q2094.37 1333.63 2094.37 1337.42 L2094.37 1352.07 L2090.09 1352.07 L2090.09 1336.57 Q2090.09 1332.82 2088.77 1331.03 Q2087.45 1329.23 2084.7 1329.23 Q2081.43 1329.23 2079.51 1331.45 Q2077.59 1333.65 2077.59 1337.42 L2077.59 1352.07 L2073.31 1352.07 L2073.31 1326.15 L2077.59 1326.15 L2077.59 1330.18 Q2079.05 1327.79 2081.09 1326.66 Q2083.12 1325.52 2085.93 1325.52 Q2088.75 1325.52 2090.72 1326.96 Q2092.71 1328.39 2093.66 1331.13 Z" fill="#000000" fill-rule="nonzero" fill-opacity="1"></path><path clip-path="url(#clip540)" d="M2131.43 1339.04 Q2126.27 1339.04 2124.28 1340.22 Q2122.29 1341.4 2122.29 1344.25 Q2122.29 1346.52 2123.77 1347.86 Q2125.28 1349.18 2127.85 1349.18 Q2131.39 1349.18 2133.52 1346.68 Q2135.67 1344.16 2135.67 1339.99 L2135.67 1339.04 L2131.43 1339.04 M2139.93 1337.28 L2139.93 1352.07 L2135.67 1352.07 L2135.67 1348.14 Q2134.21 1350.5 2132.04 1351.63 Q2129.86 1352.75 2126.71 1352.75 Q2122.73 1352.75 2120.37 1350.52 Q2118.03 1348.28 2118.03 1344.53 Q2118.03 1340.15 2120.95 1337.93 Q2123.89 1335.71 2129.7 1335.71 L2135.67 1335.71 L2135.67 1335.29 Q2135.67 1332.35 2133.73 1330.76 Q2131.8 1329.13 2128.31 1329.13 Q2126.09 1329.13 2123.98 1329.67 Q2121.87 1330.2 2119.93 1331.26 L2119.93 1327.33 Q2122.27 1326.43 2124.47 1325.99 Q2126.67 1325.52 2128.75 1325.52 Q2134.37 1325.52 2137.15 1328.44 Q2139.93 1331.36 2139.93 1337.28 Z" fill="#000000" fill-rule="nonzero" fill-opacity="1"></path><path clip-path="url(#clip540)" d="M2152.92 1318.79 L2152.92 1326.15 L2161.69 1326.15 L2161.69 1329.46 L2152.92 1329.46 L2152.92 1343.53 Q2152.92 1346.7 2153.77 1347.61 Q2154.65 1348.51 2157.31 1348.51 L2161.69 1348.51 L2161.69 1352.07 L2157.31 1352.07 Q2152.38 1352.07 2150.51 1350.25 Q2148.63 1348.39 2148.63 1343.53 L2148.63 1329.46 L2145.51 1329.46 L2145.51 1326.15 L2148.63 1326.15 L2148.63 1318.79 L2152.92 1318.79 Z" fill="#000000" fill-rule="nonzero" fill-opacity="1"></path><path clip-path="url(#clip540)" d="M2189.47 1338.05 L2189.47 1340.13 L2169.88 1340.13 Q2170.16 1344.53 2172.52 1346.84 Q2174.91 1349.13 2179.14 1349.13 Q2181.6 1349.13 2183.89 1348.53 Q2186.2 1347.93 2188.47 1346.73 L2188.47 1350.75 Q2186.18 1351.73 2183.77 1352.24 Q2181.36 1352.75 2178.89 1352.75 Q2172.68 1352.75 2169.05 1349.13 Q2165.44 1345.52 2165.44 1339.37 Q2165.44 1333 2168.86 1329.27 Q2172.31 1325.52 2178.15 1325.52 Q2183.38 1325.52 2186.41 1328.9 Q2189.47 1332.26 2189.47 1338.05 M2185.21 1336.8 Q2185.16 1333.3 2183.24 1331.22 Q2181.34 1329.13 2178.19 1329.13 Q2174.63 1329.13 2172.48 1331.15 Q2170.35 1333.16 2170.02 1336.82 L2185.21 1336.8 Z" fill="#000000" fill-rule="nonzero" fill-opacity="1"></path><path clip-path="url(#clip540)" d="M2213.52 1330.08 L2213.52 1316.06 L2217.78 1316.06 L2217.78 1352.07 L2213.52 1352.07 L2213.52 1348.19 Q2212.17 1350.5 2210.11 1351.63 Q2208.08 1352.75 2205.21 1352.75 Q2200.51 1352.75 2197.54 1349 Q2194.6 1345.25 2194.6 1339.13 Q2194.6 1333.02 2197.54 1329.27 Q2200.51 1325.52 2205.21 1325.52 Q2208.08 1325.52 2210.11 1326.66 Q2212.17 1327.77 2213.52 1330.08 M2199 1339.13 Q2199 1343.83 2200.92 1346.52 Q2202.87 1349.18 2206.25 1349.18 Q2209.63 1349.18 2211.57 1346.52 Q2213.52 1343.83 2213.52 1339.13 Q2213.52 1334.44 2211.57 1331.77 Q2209.63 1329.09 2206.25 1329.09 Q2202.87 1329.09 2200.92 1331.77 Q2199 1334.44 2199 1339.13 Z" fill="#000000" fill-rule="nonzero" fill-opacity="1"></path><path clip-path="url(#clip540)" d="M2254.74 1316.06 L2254.74 1319.6 L2250.67 1319.6 Q2248.38 1319.6 2247.48 1320.52 Q2246.6 1321.45 2246.6 1323.86 L2246.6 1326.15 L2253.61 1326.15 L2253.61 1329.46 L2246.6 1329.46 L2246.6 1352.07 L2242.31 1352.07 L2242.31 1329.46 L2238.24 1329.46 L2238.24 1326.15 L2242.31 1326.15 L2242.31 1324.34 Q2242.31 1320.01 2244.33 1318.05 Q2246.34 1316.06 2250.72 1316.06 L2254.74 1316.06 Z" fill="#000000" fill-rule="nonzero" fill-opacity="1"></path><polyline clip-path="url(#clip540)" style="stroke:#006400; stroke-linecap:round; stroke-linejoin:round; stroke-width:8; stroke-opacity:1; fill:none" stroke-dasharray="32, 20" points="1815.72,1386.63 1962.74,1386.63 "></polyline>
<path clip-path="url(#clip540)" d="M1987.24 1369.35 L2016.48 1369.35 L2016.48 1373.29 L2004.21 1373.29 L2004.21 1403.91 L1999.51 1403.91 L1999.51 1373.29 L1987.24 1373.29 L1987.24 1369.35 Z" fill="#000000" fill-rule="nonzero" fill-opacity="1"></path><path clip-path="url(#clip540)" d="M2028.87 1381.97 Q2028.15 1381.55 2027.29 1381.37 Q2026.46 1381.16 2025.44 1381.16 Q2021.83 1381.16 2019.88 1383.52 Q2017.96 1385.86 2017.96 1390.26 L2017.96 1403.91 L2013.68 1403.91 L2013.68 1377.99 L2017.96 1377.99 L2017.96 1382.02 Q2019.3 1379.66 2021.46 1378.52 Q2023.61 1377.36 2026.69 1377.36 Q2027.13 1377.36 2027.66 1377.43 Q2028.19 1377.48 2028.84 1377.6 L2028.87 1381.97 Z" fill="#000000" fill-rule="nonzero" fill-opacity="1"></path><path clip-path="url(#clip540)" d="M2032.89 1393.68 L2032.89 1377.99 L2037.15 1377.99 L2037.15 1393.52 Q2037.15 1397.2 2038.59 1399.05 Q2040.02 1400.88 2042.89 1400.88 Q2046.34 1400.88 2048.33 1398.68 Q2050.35 1396.48 2050.35 1392.69 L2050.35 1377.99 L2054.61 1377.99 L2054.61 1403.91 L2050.35 1403.91 L2050.35 1399.93 Q2048.8 1402.29 2046.74 1403.45 Q2044.7 1404.59 2041.99 1404.59 Q2037.52 1404.59 2035.21 1401.81 Q2032.89 1399.03 2032.89 1393.68 M2043.61 1377.36 L2043.61 1377.36 Z" fill="#000000" fill-rule="nonzero" fill-opacity="1"></path><path clip-path="url(#clip540)" d="M2067.59 1370.63 L2067.59 1377.99 L2076.36 1377.99 L2076.36 1381.3 L2067.59 1381.3 L2067.59 1395.37 Q2067.59 1398.54 2068.45 1399.45 Q2069.33 1400.35 2071.99 1400.35 L2076.36 1400.35 L2076.36 1403.91 L2071.99 1403.91 Q2067.06 1403.91 2065.18 1402.09 Q2063.31 1400.23 2063.31 1395.37 L2063.31 1381.3 L2060.18 1381.3 L2060.18 1377.99 L2063.31 1377.99 L2063.31 1370.63 L2067.59 1370.63 Z" fill="#000000" fill-rule="nonzero" fill-opacity="1"></path><path clip-path="url(#clip540)" d="M2103.52 1388.27 L2103.52 1403.91 L2099.26 1403.91 L2099.26 1388.41 Q2099.26 1384.72 2097.82 1382.9 Q2096.39 1381.07 2093.52 1381.07 Q2090.07 1381.07 2088.08 1383.27 Q2086.09 1385.47 2086.09 1389.26 L2086.09 1403.91 L2081.8 1403.91 L2081.8 1367.9 L2086.09 1367.9 L2086.09 1382.02 Q2087.61 1379.68 2089.67 1378.52 Q2091.76 1377.36 2094.47 1377.36 Q2098.93 1377.36 2101.23 1380.14 Q2103.52 1382.9 2103.52 1388.27 Z" fill="#000000" fill-rule="nonzero" fill-opacity="1"></path></svg>